<mxfile host="app.diagrams.net" agent="Mozilla/5.0 (Windows NT 10.0; Win64; x64) AppleWebKit/537.36 (KHTML, like Gecko) Chrome/133.0.0.0 Safari/537.36" version="26.0.14">
  <diagram name="Trang-1" id="e6Rp7REbdReXtBvr-EOM">
    <mxGraphModel dx="2048" dy="759" grid="1" gridSize="10" guides="1" tooltips="1" connect="1" arrows="1" fold="1" page="1" pageScale="1" pageWidth="827" pageHeight="1169" math="0" shadow="0">
      <root>
        <mxCell id="0" />
        <mxCell id="1" parent="0" />
        <mxCell id="r3zo5pPERsb459HV5p2h-3" style="edgeStyle=orthogonalEdgeStyle;rounded=0;orthogonalLoop=1;jettySize=auto;html=1;exitX=0.5;exitY=1;exitDx=0;exitDy=0;entryX=0.5;entryY=0;entryDx=0;entryDy=0;" edge="1" parent="1" source="r3zo5pPERsb459HV5p2h-1" target="r3zo5pPERsb459HV5p2h-2">
          <mxGeometry relative="1" as="geometry" />
        </mxCell>
        <mxCell id="r3zo5pPERsb459HV5p2h-1" value="" style="ellipse;fillColor=strokeColor;html=1;" vertex="1" parent="1">
          <mxGeometry x="385" y="24" width="30" height="30" as="geometry" />
        </mxCell>
        <mxCell id="r3zo5pPERsb459HV5p2h-6" value="Không" style="edgeStyle=orthogonalEdgeStyle;rounded=0;orthogonalLoop=1;jettySize=auto;html=1;exitX=1;exitY=0.5;exitDx=0;exitDy=0;entryX=0;entryY=0.5;entryDx=0;entryDy=0;" edge="1" parent="1" source="r3zo5pPERsb459HV5p2h-2" target="r3zo5pPERsb459HV5p2h-5">
          <mxGeometry relative="1" as="geometry" />
        </mxCell>
        <mxCell id="r3zo5pPERsb459HV5p2h-11" value="Có" style="edgeStyle=orthogonalEdgeStyle;rounded=0;orthogonalLoop=1;jettySize=auto;html=1;exitX=0.5;exitY=1;exitDx=0;exitDy=0;entryX=0.5;entryY=0;entryDx=0;entryDy=0;" edge="1" parent="1" source="r3zo5pPERsb459HV5p2h-2" target="r3zo5pPERsb459HV5p2h-7">
          <mxGeometry relative="1" as="geometry" />
        </mxCell>
        <mxCell id="r3zo5pPERsb459HV5p2h-2" value="Có tài khoản?" style="rhombus;" vertex="1" parent="1">
          <mxGeometry x="340" y="90" width="120" height="60" as="geometry" />
        </mxCell>
        <mxCell id="r3zo5pPERsb459HV5p2h-9" style="edgeStyle=orthogonalEdgeStyle;rounded=0;orthogonalLoop=1;jettySize=auto;html=1;exitX=0.5;exitY=1;exitDx=0;exitDy=0;entryX=0.5;entryY=0;entryDx=0;entryDy=0;" edge="1" parent="1" source="r3zo5pPERsb459HV5p2h-5" target="r3zo5pPERsb459HV5p2h-8">
          <mxGeometry relative="1" as="geometry" />
        </mxCell>
        <mxCell id="r3zo5pPERsb459HV5p2h-5" value="Đăng ký" style="rounded=0;whiteSpace=wrap;html=1;" vertex="1" parent="1">
          <mxGeometry x="540" y="90" width="120" height="60" as="geometry" />
        </mxCell>
        <mxCell id="r3zo5pPERsb459HV5p2h-47" style="edgeStyle=orthogonalEdgeStyle;rounded=0;orthogonalLoop=1;jettySize=auto;html=1;exitX=0.5;exitY=1;exitDx=0;exitDy=0;entryX=0.5;entryY=0;entryDx=0;entryDy=0;" edge="1" parent="1" source="r3zo5pPERsb459HV5p2h-51" target="r3zo5pPERsb459HV5p2h-21">
          <mxGeometry relative="1" as="geometry" />
        </mxCell>
        <mxCell id="r3zo5pPERsb459HV5p2h-48" style="edgeStyle=orthogonalEdgeStyle;rounded=0;orthogonalLoop=1;jettySize=auto;html=1;exitX=0.5;exitY=1;exitDx=0;exitDy=0;entryX=0.5;entryY=0;entryDx=0;entryDy=0;" edge="1" parent="1" source="r3zo5pPERsb459HV5p2h-51" target="r3zo5pPERsb459HV5p2h-18">
          <mxGeometry relative="1" as="geometry" />
        </mxCell>
        <mxCell id="r3zo5pPERsb459HV5p2h-50" style="edgeStyle=orthogonalEdgeStyle;rounded=0;orthogonalLoop=1;jettySize=auto;html=1;exitX=0.5;exitY=1;exitDx=0;exitDy=0;entryX=0.5;entryY=0;entryDx=0;entryDy=0;" edge="1" parent="1" source="r3zo5pPERsb459HV5p2h-51" target="r3zo5pPERsb459HV5p2h-49">
          <mxGeometry relative="1" as="geometry" />
        </mxCell>
        <mxCell id="r3zo5pPERsb459HV5p2h-7" value="Đăng nhập" style="rounded=0;whiteSpace=wrap;html=1;" vertex="1" parent="1">
          <mxGeometry x="340" y="210" width="120" height="60" as="geometry" />
        </mxCell>
        <mxCell id="r3zo5pPERsb459HV5p2h-10" style="edgeStyle=orthogonalEdgeStyle;rounded=0;orthogonalLoop=1;jettySize=auto;html=1;exitX=0;exitY=0.5;exitDx=0;exitDy=0;entryX=1;entryY=0.5;entryDx=0;entryDy=0;" edge="1" parent="1" source="r3zo5pPERsb459HV5p2h-8" target="r3zo5pPERsb459HV5p2h-7">
          <mxGeometry relative="1" as="geometry" />
        </mxCell>
        <mxCell id="r3zo5pPERsb459HV5p2h-8" value="Điền thông tin&amp;nbsp;&lt;div&gt;cá nhân&lt;/div&gt;" style="rounded=0;whiteSpace=wrap;html=1;" vertex="1" parent="1">
          <mxGeometry x="540" y="210" width="120" height="60" as="geometry" />
        </mxCell>
        <mxCell id="r3zo5pPERsb459HV5p2h-54" style="edgeStyle=orthogonalEdgeStyle;rounded=0;orthogonalLoop=1;jettySize=auto;html=1;exitX=0.5;exitY=1;exitDx=0;exitDy=0;entryX=0.5;entryY=0;entryDx=0;entryDy=0;" edge="1" parent="1" source="r3zo5pPERsb459HV5p2h-18" target="r3zo5pPERsb459HV5p2h-53">
          <mxGeometry relative="1" as="geometry" />
        </mxCell>
        <mxCell id="r3zo5pPERsb459HV5p2h-18" value="Xem thông tin&lt;div&gt;tài khoản&lt;/div&gt;" style="rounded=0;whiteSpace=wrap;html=1;" vertex="1" parent="1">
          <mxGeometry x="540" y="450" width="120" height="60" as="geometry" />
        </mxCell>
        <mxCell id="r3zo5pPERsb459HV5p2h-24" style="edgeStyle=orthogonalEdgeStyle;rounded=0;orthogonalLoop=1;jettySize=auto;html=1;exitX=0.5;exitY=1;exitDx=0;exitDy=0;entryX=0.5;entryY=0;entryDx=0;entryDy=0;" edge="1" parent="1" source="r3zo5pPERsb459HV5p2h-21" target="r3zo5pPERsb459HV5p2h-23">
          <mxGeometry relative="1" as="geometry" />
        </mxCell>
        <mxCell id="r3zo5pPERsb459HV5p2h-21" value="Danh mục sản phẩm" style="rounded=0;whiteSpace=wrap;html=1;" vertex="1" parent="1">
          <mxGeometry x="340" y="450" width="120" height="60" as="geometry" />
        </mxCell>
        <mxCell id="r3zo5pPERsb459HV5p2h-25" value="Có" style="edgeStyle=orthogonalEdgeStyle;rounded=0;orthogonalLoop=1;jettySize=auto;html=1;exitX=0;exitY=0.5;exitDx=0;exitDy=0;entryX=0;entryY=0.5;entryDx=0;entryDy=0;" edge="1" parent="1" source="r3zo5pPERsb459HV5p2h-23" target="r3zo5pPERsb459HV5p2h-21">
          <mxGeometry relative="1" as="geometry">
            <Array as="points">
              <mxPoint x="310" y="600" />
              <mxPoint x="310" y="480" />
            </Array>
          </mxGeometry>
        </mxCell>
        <mxCell id="r3zo5pPERsb459HV5p2h-37" value="Không" style="edgeStyle=orthogonalEdgeStyle;rounded=0;orthogonalLoop=1;jettySize=auto;html=1;exitX=0.5;exitY=1;exitDx=0;exitDy=0;entryX=0.5;entryY=0;entryDx=0;entryDy=0;" edge="1" parent="1" source="r3zo5pPERsb459HV5p2h-23" target="r3zo5pPERsb459HV5p2h-32">
          <mxGeometry relative="1" as="geometry" />
        </mxCell>
        <mxCell id="r3zo5pPERsb459HV5p2h-23" value="Lọc" style="rhombus;" vertex="1" parent="1">
          <mxGeometry x="340" y="570" width="120" height="60" as="geometry" />
        </mxCell>
        <mxCell id="r3zo5pPERsb459HV5p2h-35" style="edgeStyle=orthogonalEdgeStyle;rounded=0;orthogonalLoop=1;jettySize=auto;html=1;exitX=0.5;exitY=1;exitDx=0;exitDy=0;" edge="1" parent="1" source="r3zo5pPERsb459HV5p2h-32" target="r3zo5pPERsb459HV5p2h-87">
          <mxGeometry relative="1" as="geometry">
            <mxPoint x="400" y="810" as="targetPoint" />
          </mxGeometry>
        </mxCell>
        <mxCell id="r3zo5pPERsb459HV5p2h-39" style="edgeStyle=orthogonalEdgeStyle;rounded=0;orthogonalLoop=1;jettySize=auto;html=1;exitX=1;exitY=0.5;exitDx=0;exitDy=0;entryX=0;entryY=0.5;entryDx=0;entryDy=0;" edge="1" parent="1" source="r3zo5pPERsb459HV5p2h-87" target="r3zo5pPERsb459HV5p2h-40">
          <mxGeometry relative="1" as="geometry">
            <mxPoint x="520" y="720" as="targetPoint" />
          </mxGeometry>
        </mxCell>
        <mxCell id="r3zo5pPERsb459HV5p2h-32" value="Xem chi tiết&amp;nbsp;&lt;div&gt;sản phâm&lt;/div&gt;" style="rounded=0;whiteSpace=wrap;html=1;" vertex="1" parent="1">
          <mxGeometry x="340" y="690" width="120" height="60" as="geometry" />
        </mxCell>
        <mxCell id="r3zo5pPERsb459HV5p2h-43" style="edgeStyle=orthogonalEdgeStyle;rounded=0;orthogonalLoop=1;jettySize=auto;html=1;exitX=0.5;exitY=1;exitDx=0;exitDy=0;entryX=1;entryY=0.5;entryDx=0;entryDy=0;" edge="1" parent="1" source="r3zo5pPERsb459HV5p2h-38" target="r3zo5pPERsb459HV5p2h-49">
          <mxGeometry relative="1" as="geometry">
            <Array as="points">
              <mxPoint x="400" y="1040" />
              <mxPoint x="290" y="1040" />
              <mxPoint x="290" y="480" />
            </Array>
          </mxGeometry>
        </mxCell>
        <mxCell id="r3zo5pPERsb459HV5p2h-38" value="Thêm vào giỏ hàng" style="rounded=0;whiteSpace=wrap;html=1;" vertex="1" parent="1">
          <mxGeometry x="340" y="930" width="120" height="60" as="geometry" />
        </mxCell>
        <mxCell id="r3zo5pPERsb459HV5p2h-42" style="edgeStyle=orthogonalEdgeStyle;rounded=0;orthogonalLoop=1;jettySize=auto;html=1;exitX=0.5;exitY=1;exitDx=0;exitDy=0;entryX=0.5;entryY=0;entryDx=0;entryDy=0;" edge="1" parent="1" source="r3zo5pPERsb459HV5p2h-40" target="r3zo5pPERsb459HV5p2h-41">
          <mxGeometry relative="1" as="geometry" />
        </mxCell>
        <mxCell id="r3zo5pPERsb459HV5p2h-40" value="Xem đánh giá" style="rounded=0;whiteSpace=wrap;html=1;" vertex="1" parent="1">
          <mxGeometry x="540" y="810" width="120" height="60" as="geometry" />
        </mxCell>
        <mxCell id="r3zo5pPERsb459HV5p2h-41" value="Để lại đánh giá" style="rounded=0;whiteSpace=wrap;html=1;" vertex="1" parent="1">
          <mxGeometry x="540" y="930" width="120" height="60" as="geometry" />
        </mxCell>
        <mxCell id="r3zo5pPERsb459HV5p2h-61" style="edgeStyle=orthogonalEdgeStyle;rounded=0;orthogonalLoop=1;jettySize=auto;html=1;exitX=0.5;exitY=1;exitDx=0;exitDy=0;entryX=0.5;entryY=0;entryDx=0;entryDy=0;" edge="1" parent="1" source="r3zo5pPERsb459HV5p2h-49" target="r3zo5pPERsb459HV5p2h-60">
          <mxGeometry relative="1" as="geometry" />
        </mxCell>
        <mxCell id="r3zo5pPERsb459HV5p2h-49" value="Xem giỏ hàng" style="rounded=0;whiteSpace=wrap;html=1;" vertex="1" parent="1">
          <mxGeometry x="140" y="450" width="120" height="60" as="geometry" />
        </mxCell>
        <mxCell id="r3zo5pPERsb459HV5p2h-52" value="" style="edgeStyle=orthogonalEdgeStyle;rounded=0;orthogonalLoop=1;jettySize=auto;html=1;exitX=0.5;exitY=1;exitDx=0;exitDy=0;entryX=0.5;entryY=0;entryDx=0;entryDy=0;" edge="1" parent="1" source="r3zo5pPERsb459HV5p2h-7" target="r3zo5pPERsb459HV5p2h-51">
          <mxGeometry relative="1" as="geometry">
            <mxPoint x="400" y="270" as="sourcePoint" />
            <mxPoint x="200" y="490" as="targetPoint" />
          </mxGeometry>
        </mxCell>
        <mxCell id="r3zo5pPERsb459HV5p2h-82" style="edgeStyle=orthogonalEdgeStyle;rounded=0;orthogonalLoop=1;jettySize=auto;html=1;exitX=0.5;exitY=1;exitDx=0;exitDy=0;entryX=0.5;entryY=0;entryDx=0;entryDy=0;" edge="1" parent="1" source="r3zo5pPERsb459HV5p2h-51" target="r3zo5pPERsb459HV5p2h-79">
          <mxGeometry relative="1" as="geometry">
            <Array as="points">
              <mxPoint x="400" y="410" />
              <mxPoint x="-80" y="410" />
            </Array>
          </mxGeometry>
        </mxCell>
        <mxCell id="r3zo5pPERsb459HV5p2h-51" value="Trang chủ" style="rounded=0;whiteSpace=wrap;html=1;" vertex="1" parent="1">
          <mxGeometry x="340" y="310" width="120" height="60" as="geometry" />
        </mxCell>
        <mxCell id="r3zo5pPERsb459HV5p2h-56" value="Có" style="edgeStyle=orthogonalEdgeStyle;rounded=0;orthogonalLoop=1;jettySize=auto;html=1;exitX=1;exitY=0.5;exitDx=0;exitDy=0;entryX=0;entryY=0.5;entryDx=0;entryDy=0;" edge="1" parent="1" source="r3zo5pPERsb459HV5p2h-53" target="r3zo5pPERsb459HV5p2h-55">
          <mxGeometry relative="1" as="geometry" />
        </mxCell>
        <mxCell id="r3zo5pPERsb459HV5p2h-57" value="Không" style="edgeStyle=orthogonalEdgeStyle;rounded=0;orthogonalLoop=1;jettySize=auto;html=1;exitX=0.5;exitY=1;exitDx=0;exitDy=0;entryX=0.5;entryY=0;entryDx=0;entryDy=0;" edge="1" parent="1" source="r3zo5pPERsb459HV5p2h-53" target="r3zo5pPERsb459HV5p2h-67">
          <mxGeometry x="-0.7692" relative="1" as="geometry">
            <Array as="points">
              <mxPoint x="600" y="680" />
              <mxPoint x="600" y="680" />
            </Array>
            <mxPoint as="offset" />
          </mxGeometry>
        </mxCell>
        <mxCell id="r3zo5pPERsb459HV5p2h-53" value="Thay đổi?" style="rhombus;" vertex="1" parent="1">
          <mxGeometry x="540" y="570" width="120" height="60" as="geometry" />
        </mxCell>
        <mxCell id="r3zo5pPERsb459HV5p2h-64" style="edgeStyle=orthogonalEdgeStyle;rounded=0;orthogonalLoop=1;jettySize=auto;html=1;exitX=0.5;exitY=0;exitDx=0;exitDy=0;entryX=1;entryY=0.5;entryDx=0;entryDy=0;" edge="1" parent="1" source="r3zo5pPERsb459HV5p2h-55" target="r3zo5pPERsb459HV5p2h-18">
          <mxGeometry relative="1" as="geometry" />
        </mxCell>
        <mxCell id="r3zo5pPERsb459HV5p2h-55" value="Cập nhật thông tin" style="rounded=0;whiteSpace=wrap;html=1;" vertex="1" parent="1">
          <mxGeometry x="740" y="570" width="120" height="60" as="geometry" />
        </mxCell>
        <mxCell id="r3zo5pPERsb459HV5p2h-66" value="Không" style="edgeStyle=orthogonalEdgeStyle;rounded=0;orthogonalLoop=1;jettySize=auto;html=1;exitX=0.5;exitY=1;exitDx=0;exitDy=0;entryX=0.5;entryY=0;entryDx=0;entryDy=0;" edge="1" parent="1" source="r3zo5pPERsb459HV5p2h-60" target="r3zo5pPERsb459HV5p2h-65">
          <mxGeometry relative="1" as="geometry" />
        </mxCell>
        <mxCell id="r3zo5pPERsb459HV5p2h-80" value="Có" style="edgeStyle=orthogonalEdgeStyle;rounded=0;orthogonalLoop=1;jettySize=auto;html=1;exitX=0;exitY=0.5;exitDx=0;exitDy=0;entryX=1;entryY=0.5;entryDx=0;entryDy=0;" edge="1" parent="1" source="r3zo5pPERsb459HV5p2h-60" target="r3zo5pPERsb459HV5p2h-62">
          <mxGeometry relative="1" as="geometry" />
        </mxCell>
        <mxCell id="r3zo5pPERsb459HV5p2h-60" value="Thay đổi&#xa;số lượng?" style="rhombus;" vertex="1" parent="1">
          <mxGeometry x="140" y="570" width="120" height="60" as="geometry" />
        </mxCell>
        <mxCell id="r3zo5pPERsb459HV5p2h-83" style="edgeStyle=orthogonalEdgeStyle;rounded=0;orthogonalLoop=1;jettySize=auto;html=1;exitX=0.5;exitY=0;exitDx=0;exitDy=0;entryX=0;entryY=0.5;entryDx=0;entryDy=0;" edge="1" parent="1" source="r3zo5pPERsb459HV5p2h-62" target="r3zo5pPERsb459HV5p2h-49">
          <mxGeometry relative="1" as="geometry" />
        </mxCell>
        <mxCell id="r3zo5pPERsb459HV5p2h-62" value="Cập nhật giỏ hàng" style="rounded=0;whiteSpace=wrap;html=1;" vertex="1" parent="1">
          <mxGeometry x="-60" y="570" width="120" height="60" as="geometry" />
        </mxCell>
        <mxCell id="r3zo5pPERsb459HV5p2h-73" style="edgeStyle=orthogonalEdgeStyle;rounded=0;orthogonalLoop=1;jettySize=auto;html=1;exitX=0.5;exitY=1;exitDx=0;exitDy=0;entryX=0.5;entryY=0;entryDx=0;entryDy=0;" edge="1" parent="1" source="r3zo5pPERsb459HV5p2h-65" target="r3zo5pPERsb459HV5p2h-72">
          <mxGeometry relative="1" as="geometry" />
        </mxCell>
        <mxCell id="r3zo5pPERsb459HV5p2h-65" value="Thanh toán" style="rounded=0;whiteSpace=wrap;html=1;" vertex="1" parent="1">
          <mxGeometry x="140" y="690" width="120" height="60" as="geometry" />
        </mxCell>
        <mxCell id="r3zo5pPERsb459HV5p2h-69" value="Không" style="edgeStyle=orthogonalEdgeStyle;rounded=0;orthogonalLoop=1;jettySize=auto;html=1;exitX=0;exitY=0.5;exitDx=0;exitDy=0;entryX=1;entryY=0.5;entryDx=0;entryDy=0;" edge="1" parent="1" source="r3zo5pPERsb459HV5p2h-67" target="r3zo5pPERsb459HV5p2h-51">
          <mxGeometry x="-0.8261" relative="1" as="geometry">
            <Array as="points">
              <mxPoint x="500" y="720" />
              <mxPoint x="500" y="340" />
            </Array>
            <mxPoint as="offset" />
          </mxGeometry>
        </mxCell>
        <mxCell id="r3zo5pPERsb459HV5p2h-71" value="Có" style="edgeStyle=orthogonalEdgeStyle;rounded=0;orthogonalLoop=1;jettySize=auto;html=1;exitX=1;exitY=0.5;exitDx=0;exitDy=0;entryX=0;entryY=0.5;entryDx=0;entryDy=0;" edge="1" parent="1" source="r3zo5pPERsb459HV5p2h-67" target="r3zo5pPERsb459HV5p2h-70">
          <mxGeometry relative="1" as="geometry" />
        </mxCell>
        <mxCell id="r3zo5pPERsb459HV5p2h-67" value="Đăng xuất?" style="rhombus;" vertex="1" parent="1">
          <mxGeometry x="540" y="690" width="120" height="60" as="geometry" />
        </mxCell>
        <mxCell id="r3zo5pPERsb459HV5p2h-70" value="" style="ellipse;html=1;shape=endState;fillColor=strokeColor;" vertex="1" parent="1">
          <mxGeometry x="785" y="705" width="30" height="30" as="geometry" />
        </mxCell>
        <mxCell id="r3zo5pPERsb459HV5p2h-75" style="edgeStyle=orthogonalEdgeStyle;rounded=0;orthogonalLoop=1;jettySize=auto;html=1;exitX=0.5;exitY=1;exitDx=0;exitDy=0;entryX=0.5;entryY=0;entryDx=0;entryDy=0;" edge="1" parent="1" source="r3zo5pPERsb459HV5p2h-72" target="r3zo5pPERsb459HV5p2h-74">
          <mxGeometry relative="1" as="geometry" />
        </mxCell>
        <mxCell id="r3zo5pPERsb459HV5p2h-72" value="Kiểm tra đơn hàng&amp;nbsp;&lt;div&gt;và tổng tiền&lt;/div&gt;" style="rounded=0;whiteSpace=wrap;html=1;" vertex="1" parent="1">
          <mxGeometry x="140" y="810" width="120" height="60" as="geometry" />
        </mxCell>
        <mxCell id="r3zo5pPERsb459HV5p2h-78" value="Có" style="edgeStyle=orthogonalEdgeStyle;rounded=0;orthogonalLoop=1;jettySize=auto;html=1;exitX=0;exitY=0.5;exitDx=0;exitDy=0;entryX=1;entryY=0.5;entryDx=0;entryDy=0;" edge="1" parent="1" source="r3zo5pPERsb459HV5p2h-74" target="r3zo5pPERsb459HV5p2h-77">
          <mxGeometry relative="1" as="geometry" />
        </mxCell>
        <mxCell id="r3zo5pPERsb459HV5p2h-84" value="Không" style="edgeStyle=orthogonalEdgeStyle;rounded=0;orthogonalLoop=1;jettySize=auto;html=1;exitX=0.5;exitY=1;exitDx=0;exitDy=0;entryX=1;entryY=0.5;entryDx=0;entryDy=0;" edge="1" parent="1" source="r3zo5pPERsb459HV5p2h-74" target="r3zo5pPERsb459HV5p2h-49">
          <mxGeometry x="-0.9155" relative="1" as="geometry">
            <Array as="points">
              <mxPoint x="200" y="1040" />
              <mxPoint x="290" y="1040" />
              <mxPoint x="290" y="480" />
            </Array>
            <mxPoint as="offset" />
          </mxGeometry>
        </mxCell>
        <mxCell id="r3zo5pPERsb459HV5p2h-74" value="Thanh toán" style="rhombus;" vertex="1" parent="1">
          <mxGeometry x="140" y="930" width="120" height="60" as="geometry" />
        </mxCell>
        <mxCell id="r3zo5pPERsb459HV5p2h-81" style="edgeStyle=orthogonalEdgeStyle;rounded=0;orthogonalLoop=1;jettySize=auto;html=1;exitX=0.5;exitY=0;exitDx=0;exitDy=0;entryX=0.5;entryY=1;entryDx=0;entryDy=0;" edge="1" parent="1" source="r3zo5pPERsb459HV5p2h-77" target="r3zo5pPERsb459HV5p2h-79">
          <mxGeometry relative="1" as="geometry" />
        </mxCell>
        <mxCell id="r3zo5pPERsb459HV5p2h-77" value="Thanh toán thành công, lưu hóa đơn" style="rounded=0;whiteSpace=wrap;html=1;" vertex="1" parent="1">
          <mxGeometry x="-140" y="930" width="120" height="60" as="geometry" />
        </mxCell>
        <mxCell id="r3zo5pPERsb459HV5p2h-86" style="edgeStyle=orthogonalEdgeStyle;rounded=0;orthogonalLoop=1;jettySize=auto;html=1;exitX=1;exitY=0.5;exitDx=0;exitDy=0;entryX=0.5;entryY=0;entryDx=0;entryDy=0;" edge="1" parent="1" source="r3zo5pPERsb459HV5p2h-79" target="r3zo5pPERsb459HV5p2h-85">
          <mxGeometry relative="1" as="geometry" />
        </mxCell>
        <mxCell id="r3zo5pPERsb459HV5p2h-79" value="Xem lịch sử&amp;nbsp;&lt;div&gt;giao dịch&lt;/div&gt;" style="rounded=0;whiteSpace=wrap;html=1;" vertex="1" parent="1">
          <mxGeometry x="-140" y="690" width="120" height="60" as="geometry" />
        </mxCell>
        <mxCell id="r3zo5pPERsb459HV5p2h-85" value="Danh sách&amp;nbsp;&lt;div&gt;đơn hàng&lt;/div&gt;" style="rounded=0;whiteSpace=wrap;html=1;" vertex="1" parent="1">
          <mxGeometry x="-60" y="810" width="120" height="60" as="geometry" />
        </mxCell>
        <mxCell id="r3zo5pPERsb459HV5p2h-88" style="edgeStyle=orthogonalEdgeStyle;rounded=0;orthogonalLoop=1;jettySize=auto;html=1;exitX=0.5;exitY=1;exitDx=0;exitDy=0;entryX=0.5;entryY=0;entryDx=0;entryDy=0;" edge="1" parent="1" source="r3zo5pPERsb459HV5p2h-87" target="r3zo5pPERsb459HV5p2h-38">
          <mxGeometry relative="1" as="geometry" />
        </mxCell>
        <mxCell id="r3zo5pPERsb459HV5p2h-87" value="Hành động?" style="rhombus;" vertex="1" parent="1">
          <mxGeometry x="340" y="810" width="120" height="60" as="geometry" />
        </mxCell>
      </root>
    </mxGraphModel>
  </diagram>
</mxfile>
